# xmcd
#
# Track frame offsets:
#	150
#	12261
#	25846
#	43040
#	60566
#	77119
#	88316
#	103795
#	115344
#	133745
#	146429
#	164130
#	177855
#	192480
#	213528
#	229717
# Disc length: 3271 seconds
# Revision: 2
# Processed by: cddbd v1.5.2PL0 Copyright (c) Steve Scherf et al.
#
# Submitted via: libkcddb 0.31
#
DISCID=e60cc510
DTITLE=Mandy Strobel - Between The Lines
DYEAR=2005
DGENRE=Country
TTITLE0=That Don't Bother Me
TTITLE1=Hank's Songs
TTITLE2=Peace Of Mind
TTITLE3=Courage To Say Goodbye
TTITLE4=Never Gonna Let You Go
TTITLE5=Yes My Honey Whatever You Say
TTITLE6=Flesh And Blood (don't mean anything)
TTITLE7=Now You're Gone
TTITLE8=Margaritas made in Hell
TTITLE9=Heartbreaks And Barrooms
TTITLE10=Paradise
TTITLE11=That's What You Do With The Blues
TTITLE12=Hard-Hearted Hard-Headed One Arm Man
TTITLE13=The Fairest Outlaw
TTITLE14=When the sun goes down in Santa Fe
TTITLE15=Shadow Of A Fool
EXTD=YEAR: 2005 ID3G: 2
EXTT0=
EXTT1=
EXTT2=
EXTT3=
EXTT4=
EXTT5=
EXTT6=
EXTT7=
EXTT8=
EXTT9=
EXTT10=
EXTT11=
EXTT12=
EXTT13=
EXTT14=
EXTT15=
PLAYORDER=
